<?xml version="1.0" encoding="UTF-8" standalone="no"?>
<!-- Created with Inkscape (http://www.inkscape.org/) -->

<svg
   width="306.80206mm"
   height="394.69257mm"
   viewBox="0 0 306.80206 394.69257"
   version="1.1"
   id="svg5"
   xml:space="preserve"
   inkscape:version="1.2.1 (9c6d41e, 2022-07-14)"
   sodipodi:docname="drawing.svg"
   xmlns:inkscape="http://www.inkscape.org/namespaces/inkscape"
   xmlns:sodipodi="http://sodipodi.sourceforge.net/DTD/sodipodi-0.dtd"
   xmlns="http://www.w3.org/2000/svg"
   xmlns:svg="http://www.w3.org/2000/svg"><sodipodi:namedview
     id="namedview7"
     pagecolor="#ffffff"
     bordercolor="#000000"
     borderopacity="0.25"
     inkscape:showpageshadow="2"
     inkscape:pageopacity="0.0"
     inkscape:pagecheckerboard="0"
     inkscape:deskcolor="#d1d1d1"
     inkscape:document-units="mm"
     showgrid="false"
     inkscape:zoom="0.33025726"
     inkscape:cx="744.87386"
     inkscape:cy="1012.8468"
     inkscape:window-width="1800"
     inkscape:window-height="1097"
     inkscape:window-x="0"
     inkscape:window-y="44"
     inkscape:window-maximized="0"
     inkscape:current-layer="layer1" /><defs
     id="defs2" /><g
     inkscape:label="Layer 1"
     inkscape:groupmode="layer"
     id="layer1"
     transform="translate(-131.62255,-32.098028)"><path
       style="fill:#000000;stroke-width:0.264583"
       d="m 435.86894,419.41512 c -1.19015,-4.05649 -5.69092,-19.40076 -10.0017,-34.09837 -4.3108,-14.6976 -8.71712,-29.69948 -9.79188,-33.3375 -1.07474,-3.63802 -5.0033,-17.03255 -8.73017,-29.76562 -3.72684,-12.73308 -6.83829,-23.36046 -6.91433,-23.61645 -0.076,-0.25596 -3.45805,-3.02734 -7.5156,-6.15863 l -7.37729,-5.69322 0.48164,-1.11742 c 0.57608,-1.33651 7.58082,-17.00956 13.92079,-31.14762 7.0408,-15.70096 7.27147,-16.22486 7.18265,-16.31368 -0.0675,-0.0675 -6.40176,9.20983 -24.52037,35.91346 l -0.66146,0.97488 -3.35809,-3.20974 c -10.88671,-10.40566 -16.16837,-15.40174 -16.44989,-15.56036 -0.17552,-0.0989 -10.31616,-3.05429 -22.53475,-6.56754 -12.21859,-3.51327 -22.98896,-6.61445 -23.93413,-6.89155 l -1.71855,-0.50382 -0.92728,0.74713 c -1.63899,1.32049 -2.29129,2.74463 -3.10597,6.78101 l -0.74761,3.70417 -1.44729,0.79375 c -1.33642,0.73295 -1.63984,0.79168 -3.96082,0.76676 -2.19234,-0.0236 -2.84168,-0.14833 -5.08132,-0.97644 -1.41227,-0.52221 -3.47472,-1.07562 -4.58319,-1.22979 -2.89886,-0.4032 -13.07952,-0.33753 -19.70424,0.12711 -9.26432,0.64976 -13.60746,0.75345 -17.06562,0.40743 -5.29204,-0.52954 -9.18563,-1.63616 -13.68236,-3.88879 l -2.30528,-1.15486 -1.98976,1.02966 c -2.15276,1.11402 -5.43823,3.35499 -5.43823,3.70935 0,0.12038 0.17859,0.64635 0.39687,1.16877 0.21829,0.52242 0.39688,1.42573 0.39688,2.00737 0,1.32331 -0.43507,1.58861 -3.00849,1.83441 -1.79836,0.17179 -2.28607,0.38909 -9.55612,4.25794 -4.21357,2.24231 -8.11765,4.3363 -8.67575,4.6533 l -1.01471,0.57637 2.95091,2.58371 c 2.56092,2.24226 3.4808,2.85134 6.96035,4.60867 6.79164,3.43009 10.43224,6.30166 11.97433,9.44499 0.98728,2.0124 1.16849,4.79195 0.49231,7.55116 -0.48236,1.96834 -2.5014,6.19315 -4.15423,8.69267 -1.11672,1.68878 -3.58218,7.77417 -5.30611,13.09688 -3.5125,10.84498 -5.37763,21.10208 -5.65309,31.08854 -0.12772,4.63008 -0.0984,5.03605 0.54156,7.50671 1.2674,4.8928 3.90926,9.25126 7.88728,13.01223 1.06945,1.01111 5.00485,4.14655 8.74533,6.96767 6.1261,4.62037 6.86708,5.26214 7.46804,6.46809 0.69612,1.39694 0.85123,2.77778 0.40558,3.6105 -0.49504,0.92498 -2.54226,1.46378 -5.42698,1.4283 -3.10701,-0.0382 -5.52011,-0.3733 -10.58334,-1.46958 l -3.70416,-0.80203 -2.11667,-2.02983 c -4.52249,-4.33697 -9.30684,-7.0617 -15.60206,-8.88553 -2.44255,-0.70762 -3.33344,-1.2905 -4.03525,-2.64004 -1.05981,-2.03792 -0.92545,-3.68683 0.42735,-5.24443 1.05083,-1.20992 1.29758,-1.76049 1.74743,-3.89898 0.73632,-3.50039 0.32744,-19.33583 -0.80615,-31.221 -0.83969,-8.80382 -0.80241,-15.31075 0.10854,-18.94131 1.00908,-4.02164 2.55323,-7.43363 5.23351,-11.56398 0.92501,-1.42547 1.68184,-2.6501 1.68184,-2.72137 0,-0.2857 -2.49349,-1.17322 -4.06491,-1.44688 -1.10161,-0.19185 -2.13031,-0.20738 -3.02019,-0.0456 l -1.34955,0.2453 -12.03652,-6.57556 c -11.42472,-6.24134 -12.10804,-6.5758 -13.44361,-6.5804 -3.9331,-0.0135 -9.97763,-1.41211 -13.29191,-3.07544 -2.53151,-1.27048 -4.03789,-2.41691 -6.09465,-4.63841 l -1.732,-1.87074 v 9.04709 9.04708 l -0.68016,1.1606 c -0.37409,0.63833 -1.0926,1.52273 -1.5967,1.96535 -0.91548,0.8038 -0.92037,0.80473 -4.18842,0.80473 h -3.27187 l -1.54757,-1.16438 c -1.52378,-1.14647 -3.70709,-3.63569 -4.78037,-5.45021 -0.5057,-0.85494 -0.56231,-1.50746 -0.73734,-8.49931 l -0.18958,-7.57328 4.23629,-2.54704 c 3.94176,-2.36995 4.3347,-2.54727 5.65174,-2.55034 1.28559,-0.003 1.52116,-0.10147 2.56786,-1.07352 0.9663,-0.89736 1.12693,-1.18526 0.99456,-1.78263 -0.17113,-0.77229 -0.86426,-5.49431 -1.10463,-7.52544 -0.22958,-1.93992 -0.57887,-1.48955 -0.68673,0.88548 -0.089,1.95882 -0.16059,2.19673 -0.83652,2.77813 -0.95389,0.8205 -1.78073,0.80584 -2.58079,-0.0458 -0.54018,-0.575 -0.65491,-1.00145 -0.73319,-2.72532 -0.0659,-1.45036 0.0298,-2.33719 0.32968,-3.0548 0.23237,-0.55615 0.42249,-1.03806 0.42249,-1.07095 0,-0.0329 -0.4632,-0.26869 -1.02933,-0.52398 -0.88193,-0.3977 -1.16337,-0.75391 -1.9654,-2.48756 -1.65642,-3.58056 -2.58325,-7.48678 -3.4778,-14.65765 -0.49589,-3.97511 -1.58967,-7.89312 -3.94972,-14.14827 -2.64405,-7.00787 -3.25775,-9.04796 -4.96336,-16.49949 -0.66139,-2.88948 1.25891,-6.78239 5.16021,-10.461 1.98911,-1.87556 6.3722,-5.01768 7.59383,-5.44379 0.12598,-0.0439 0.31164,-1.07599 0.41258,-2.29343 l 0.18353,-2.21353 -0.59998,0.19043 -0.59997,0.19042 0.0986,-2.88189 c 0.0898,-2.62274 0.1774,-3.04188 0.97442,-4.66087 2.07302,-4.2109 6.49541,-6.69912 12.86324,-7.2374 l 2.07759,-0.17562 -0.16479,-3.59588 c -0.1697,-3.70307 -0.65804,-7.10043 -1.35357,-9.41671 l -0.39724,-1.32292 -6.23795,-2.77396 c -4.56254,-2.02892 -6.46548,-2.75178 -7.08509,-2.69139 -1.72427,0.16805 -8.52655,1.39686 -11.12683,2.01003 -1.47668,0.34821 -2.69511,0.61326 -2.70761,0.589 -0.0125,-0.0243 2.07181,-5.28285 4.63181,-11.68576 2.56,-6.40292 7.97603,-19.99723 12.03562,-30.20959 l 7.38107,-18.567907 7.00305,-2.863339 7.00304,-2.863337 22.25907,-22.890759 C 204.17876,48.74027 215.07205,37.525455 216.14358,36.408374 l 1.94824,-2.031056 3.51295,2.696814 c 1.93212,1.483246 6.71089,5.149175 10.61947,8.146508 3.90859,2.997332 10.26167,7.869896 14.11798,10.827919 12.59864,9.663936 13.45633,10.313012 13.62763,10.313012 0.0931,0 4.00042,-2.220484 8.68284,-4.934408 4.68242,-2.713926 10.00177,-5.792669 11.82078,-6.841652 7.36465,-4.247033 10.47266,-6.046533 10.88816,-6.304126 0.44238,-0.274262 0.64825,-0.114377 10.01392,7.777104 1.09141,0.919615 4.90141,4.130162 8.46667,7.134554 9.92669,8.365072 10.68959,8.989602 10.97711,8.986099 0.14722,-0.0019 0.86299,-0.570468 1.5906,-1.263724 0.7276,-0.693256 3.82323,-3.517723 6.87917,-6.276589 3.05593,-2.758868 8.23515,-7.44837 11.50937,-10.421117 19.77515,-17.95437 24.4071,-22.119684 24.59776,-22.119684 0.18158,0 4.15208,4.585158 13.61083,15.717875 5.62141,6.616272 9.74436,11.401918 9.823,11.401918 0.10856,0 6.22993,-3.529987 7.00627,-4.040278 0.66276,-0.435618 0.68151,-0.42473 3.83646,2.223709 4.64547,3.899657 14.70462,12.378236 23.81478,20.07282 4.39345,3.710781 9.55045,8.056562 11.46,9.657292 l 3.47192,2.910416 0.005,36.57865 c 0.003,20.11825 -0.0435,36.57864 -0.10303,36.57864 -0.1365,0 -0.43061,-0.3747 -15.05702,-19.18229 -6.677,-8.58573 -12.32342,-15.78901 -12.54757,-16.00729 -0.22418,-0.21828 0.36727,1.09141 1.31432,2.91042 0.94705,1.81901 2.88464,5.56948 4.30577,8.33437 1.42113,2.7649 3.44644,6.69396 4.50067,8.73125 1.05421,2.03729 3.85043,7.45464 6.21382,12.03854 2.36339,4.58391 5.13231,9.94172 6.15318,11.90626 1.02086,1.96453 2.59111,5.00062 3.4894,6.74687 l 1.6333,3.175 -0.14732,122.4692 -0.14729,122.4692 -2.16395,-7.37544 z M 150.02461,256.61434 c 0.15064,-0.28146 0.27389,-1.28675 0.27389,-2.23396 0,-1.47291 -0.084,-1.78101 -0.58039,-2.1287 -0.52459,-0.36743 -0.62635,-0.36492 -1.05834,0.0259 -0.37591,0.3402 -0.47793,0.83608 -0.47793,2.32299 0,1.11757 0.1298,2.02025 0.3175,2.20794 0.47674,0.47676 1.21659,0.38251 1.52527,-0.19428 z m 53.05827,-12.32006 c 6.1599,-2.04367 14.48447,-4.42529 19.97604,-5.71505 1.81901,-0.42723 4.37886,-1.18923 5.68854,-1.69334 3.49301,-1.34448 5.23259,-1.74196 8.33438,-1.90433 4.48531,-0.23482 8.29131,0.56163 12.96458,2.71301 2.05272,0.94498 3.89604,1.47169 10.05417,2.87276 14.17516,3.22514 18.11575,3.74849 26.44982,3.51282 6.13309,-0.1734 8.16292,-0.51861 11.01542,-1.87325 1.57218,-0.74662 2.19157,-1.24822 3.64561,-2.95235 0.96341,-1.12911 1.74866,-2.12405 1.74501,-2.21099 -0.004,-0.0869 -1.46217,-1.12829 -3.24114,-2.31413 -1.77898,-1.18583 -4.82471,-3.24154 -6.76831,-4.56824 -3.2022,-2.18584 -4.12083,-2.65119 -9.78958,-4.95906 -3.44068,-1.40078 -6.40016,-2.67881 -6.57661,-2.84008 -0.17646,-0.16127 -1.8743,-3.13541 -3.77298,-6.60921 -1.89868,-3.47379 -4.44387,-7.76004 -5.65596,-9.525 -1.2121,-1.76495 -3.25332,-4.75682 -4.53606,-6.64859 -1.28273,-1.89178 -3.42714,-5.04693 -4.76536,-7.01146 -1.33821,-1.96453 -2.4311,-3.75117 -2.42864,-3.97029 0.002,-0.21913 -0.92658,-1.58835 -2.06453,-3.04271 -1.13795,-1.45436 -2.72348,-3.62656 -3.52339,-4.82711 -0.79992,-1.20054 -1.58536,-2.18981 -1.74541,-2.19836 -0.16006,-0.009 -7.3157,-9.06531 -15.90143,-20.12612 -8.58573,-11.06082 -15.7818,-20.25141 -15.99126,-20.42352 -0.20946,-0.17212 0.4024,1.17534 1.35969,2.99435 0.95729,1.81902 4.74236,9.14136 8.41128,16.27188 3.66891,7.13052 7.44382,14.43173 8.38868,16.2249 0.94486,1.79317 1.66299,3.31524 1.59585,3.38239 -0.0672,0.0672 -7.96103,-0.94881 -17.54198,-2.25768 -9.58094,-1.30886 -17.45887,-2.34079 -17.50649,-2.29316 -0.0476,0.0476 0.61919,2.57301 1.48182,5.61195 3.29189,11.59687 3.7196,16.64676 1.68737,19.92234 -0.6026,0.97128 -1.43704,1.60414 -4.95788,3.76021 -2.32833,1.42581 -7.00154,4.29097 -10.3849,6.36701 l -6.15156,3.77462 v 0.94429 c 0,0.75303 -0.21435,1.15358 -1.05833,1.97772 l -1.05834,1.03343 0.003,3.84891 c 0.003,4.83892 0.42923,14.57472 0.80529,18.40099 l 0.28604,2.91042 1.63589,1.51222 c 3.11255,2.87724 3.25259,2.94101 6.61416,3.01109 1.98798,0.0415 3.56711,0.23403 4.81131,0.58672 1.01865,0.28874 2.03068,0.46564 2.24896,0.39309 0.21828,-0.0726 3.01625,-1.00095 6.21771,-2.06309 z m -24.68123,-23.48222 c -0.1188,-3.2867 -0.0784,-3.16037 -0.8173,-2.55761 l -0.62771,0.51207 0.61091,2.11417 c 0.33599,1.1628 0.67887,2.11418 0.76195,2.11418 0.0831,0 0.11555,-0.98226 0.0722,-2.18281 z m -6.91439,-18.98386 c 4.60777,0 4.70854,-0.0119 4.88857,-0.57917 0.1011,-0.31854 0.75237,-1.13295 1.44727,-1.8098 l 1.26345,-1.23063 0.29789,-5.26781 c 0.46007,-8.13563 1.02537,-15.49183 1.74495,-22.70684 0.36154,-3.62511 0.62695,-6.60922 0.58979,-6.63133 -0.0372,-0.0221 -0.78193,-0.35483 -1.65505,-0.73935 -0.87313,-0.38453 -3.84127,-1.71494 -6.59587,-2.95648 -2.7546,-1.24154 -5.042,-2.22371 -5.08311,-2.1826 -0.0411,0.0411 1.41986,2.7856 3.24659,6.09886 l 3.32133,6.02412 -0.3016,4.2827 c -0.39112,5.55407 -0.95025,10.00074 -1.48668,11.82333 -1.07162,3.64097 -3.77094,7.5093 -7.23637,10.37025 -3.19276,2.63586 -3.1945,2.63822 -3.1945,4.3326 v 1.51438 l 2.0243,-0.17111 c 1.11336,-0.0941 4.14143,-0.17112 6.72904,-0.17112 z m 15.19145,-6.60414 c 1.16417,-0.30664 3.03372,-0.63024 4.15457,-0.71911 2.39212,-0.18965 2.05862,0.51338 2.86318,-6.03576 0.30375,-2.4725 0.79854,-5.44556 1.09955,-6.60679 1.06708,-4.11662 0.35944,-6.62525 -3.04517,-10.79544 -1.25824,-1.54117 -2.4355,-3.1265 -2.61615,-3.52297 -0.24133,-0.52966 -0.91579,-0.99092 -2.54303,-1.73915 -1.21803,-0.56007 -2.36437,-1.0183 -2.54743,-1.0183 -0.21333,0 -0.39535,0.59378 -0.50693,1.65364 -1.42649,13.55006 -2.54713,26.50476 -2.54713,29.44513 v 1.39361 l 1.78594,-0.74866 c 0.98226,-0.41176 2.73844,-0.99955 3.9026,-1.3062 z m 105.29798,-63.78708 c 4.75388,-4.50508 7.89353,-7.48931 10.45268,-9.93527 1.38497,-1.32369 6.1495,-5.84155 10.58789,-10.03971 4.43839,-4.19815 10.27245,-9.73162 12.96458,-12.29659 18.26808,-17.40516 22.26371,-21.103437 22.69456,-21.005652 2.61186,0.592791 26.90985,5.136761 27.1104,5.069917 0.14695,-0.04899 -2.84326,-2.631462 -6.64493,-5.738832 -3.80167,-3.10737 -6.91211,-5.727523 -6.91211,-5.822561 0,-0.09504 1.37459,-0.751242 3.05464,-1.458227 2.91756,-1.227744 3.04829,-1.316223 2.91309,-1.971662 -0.22839,-1.107361 -3.32975,-18.708678 -3.78055,-21.456029 -0.22683,-1.382448 -0.49673,-2.609295 -0.59978,-2.726328 -0.10303,-0.117031 -5.45595,5.12172 -11.89538,11.641667 -13.42358,13.591475 -8.3866,7.498477 -48.95197,59.214877 -7.76179,9.89541 -14.98669,19.08828 -16.05536,20.42859 -1.06866,1.3403 -1.94303,2.5283 -1.94303,2.63999 0,0.11169 0.98227,-0.75223 2.18282,-1.91981 1.20054,-1.16758 3.37066,-3.24855 4.82245,-4.62437 z m -132.29808,-9.74159 c 0.4435,-0.41679 6.0451,-5.14576 12.44802,-10.50882 6.40292,-5.36306 13.51242,-11.321919 15.79891,-13.241905 2.29148,-1.924185 4.48825,-3.560879 4.89479,-3.646845 1.86796,-0.394994 14.225,-2.225069 14.37947,-2.129597 0.0957,0.05913 2.41498,3.681053 5.15401,8.048717 2.73902,4.36766 5.00843,7.91281 5.04313,7.87811 0.0347,-0.0347 -1.30257,-9.333685 -2.97171,-20.664408 -1.66914,-11.330721 -2.99045,-20.645666 -2.93624,-20.69988 0.10169,-0.101679 29.43981,3.745183 30.61993,4.014934 1.16504,0.266305 0.30986,-0.249846 -6.61458,-3.992288 -3.71078,-2.005557 -8.78213,-4.748797 -11.26966,-6.096087 -2.48754,-1.347291 -5.16644,-2.779123 -5.95313,-3.181856 -0.78668,-0.40273 -1.48987,-0.780346 -1.56263,-0.839145 -0.0728,-0.0588 -0.19182,-2.320089 -0.26458,-5.025088 l -0.13229,-4.918186 -4.29705,5.667055 c -2.36337,3.116879 -6.11738,8.048305 -8.34224,10.958722 -2.22487,2.910416 -6.9535,9.101667 -10.50808,13.758334 -7.48157,9.801209 -13.5646,17.762519 -16.88046,22.092709 -10.45627,13.654874 -17.72785,23.283334 -17.58398,23.283334 0.0946,0 0.53489,-0.34101 0.97837,-0.75781 z M 288.28097,85.228652 c 1.37903,-10.390169 3.14822,-25.991289 2.96791,-26.171621 -0.0905,-0.09046 -0.73623,0.158511 -1.43502,0.55327 -1.26479,0.714494 -29.3763,16.34085 -35.37583,19.664382 -1.73196,0.959445 -3.02334,1.786339 -2.86973,1.837544 0.15361,0.0512 5.19115,-0.62738 11.19451,-1.507966 6.00338,-0.880584 11.05701,-1.601063 11.2303,-1.601063 0.26515,0 10.56776,10.898239 12.54063,13.265654 0.34996,0.419938 0.69022,0.709586 0.75615,0.643659 0.0659,-0.06592 0.51192,-3.073659 0.99108,-6.683859 z"
       id="path302" /></g></svg>
